<svg xmlns="http://www.w3.org/2000/svg" width="45.854" height="45.854" viewBox="0 0 45.854 45.854"><defs><style>.a{fill:#47b48d;}</style></defs><path class="a" d="M44.063,12.986a1.791,1.791,0,0,0-1.791,1.791V38.689a3.588,3.588,0,0,1-2.282,3.337,4.45,4.45,0,0,0-.053-1.523A17.4,17.4,0,0,0,29.158,27.867a9.314,9.314,0,1,0-12.342-.046A17.407,17.407,0,0,0,5.916,40.5a4.45,4.45,0,0,0-.052,1.523,3.587,3.587,0,0,1-2.282-3.337V7.165A3.586,3.586,0,0,1,7.165,3.582H25.972a1.791,1.791,0,0,0,0-3.582H7.165A7.173,7.173,0,0,0,0,7.165V38.689a7.173,7.173,0,0,0,7.165,7.165H38.689a7.173,7.173,0,0,0,7.165-7.165V14.777A1.791,1.791,0,0,0,44.063,12.986Zm-21.05,2.157a5.732,5.732,0,1,1-5.732,5.732A5.738,5.738,0,0,1,23.013,15.143ZM9.6,41.954a.843.843,0,0,1-.173-.716,13.8,13.8,0,0,1,27.008,0,.858.858,0,0,1-.845,1.034H10.268A.85.85,0,0,1,9.6,41.954ZM29.363,8.073A1.791,1.791,0,1,1,31.9,5.54l4.079,4.077a.229.229,0,0,0,.309-.01L42.6.751a1.791,1.791,0,1,1,2.916,2.08l-6.361,8.918q-.03.041-.062.082a3.822,3.822,0,0,1-2.717,1.415q-.126.008-.252.008A3.821,3.821,0,0,1,33.5,12.2l-.031-.03Zm0,0" transform="translate(0 0)"/></svg>