<svg xmlns="http://www.w3.org/2000/svg" width="32.904" height="31.654" viewBox="0 0 32.904 31.654"><defs><style>.a,.b{fill:#09ae7b;}.b{stroke:#09ae7b;stroke-width:0.1px;}</style></defs><path class="a" d="M31.94,13.6h-3.6V.927A.946.946,0,0,0,27.377,0H5.527a.946.946,0,0,0-.964.927v10.2H.964A.946.946,0,0,0,0,12.056V30.727a.946.946,0,0,0,.964.927H31.94a.946.946,0,0,0,.964-.927v-16.2A.946.946,0,0,0,31.94,13.6ZM6.491,1.855H26.413V13.6H15.762l-1.019-1.96a.969.969,0,0,0-.862-.513H6.491ZM30.976,29.8H1.928V19.166H30.976Zm0-12.489H1.928V12.983H13.285l1.019,1.96a.969.969,0,0,0,.862.513H30.976Z"/><path class="b" d="M131.964,61.928h6.426a.964.964,0,1,0,0-1.928h-6.426a.964.964,0,0,0,0,1.928Z" transform="translate(-122.581 -56.144)"/><path class="b" d="M139.354,120.964a.964.964,0,0,0-.964-.964h-6.426a.964.964,0,0,0,0,1.928h6.426A.964.964,0,0,0,139.354,120.964Z" transform="translate(-122.581 -112.599)"/><path class="b" d="M293.571,46.105a.643.643,0,1,1-.63.772.964.964,0,0,0-1.889.384,2.577,2.577,0,0,0,1.555,1.868v.189a.964.964,0,0,0,1.928,0V49.13a2.57,2.57,0,0,0-.964-4.953.643.643,0,1,1,.629-.772.964.964,0,0,0,1.89-.384,2.577,2.577,0,0,0-1.555-1.868v-.189a.964.964,0,0,0-1.928,0v.188a2.57,2.57,0,0,0,.964,4.953Z" transform="translate(-272.299 -37.429)"/></svg>