<svg xmlns="http://www.w3.org/2000/svg" width="34.017" height="37.109" viewBox="0 0 34.017 37.109"><defs><style>.a{fill:#47b48d;}</style></defs><path class="a" d="M371.855,38.73a1.16,1.16,0,0,1-1.16-1.16,16.516,16.516,0,0,0-4.867-11.754,1.16,1.16,0,1,1,1.641-1.64,18.824,18.824,0,0,1,5.546,13.395A1.16,1.16,0,0,1,371.855,38.73Zm0,0" transform="translate(-338.998 -22.108)"/><path class="a" d="M1.16,38.748A1.16,1.16,0,0,1,0,37.589,18.814,18.814,0,0,1,5.548,24.2a1.16,1.16,0,1,1,1.641,1.641A16.505,16.505,0,0,0,2.319,37.589,1.16,1.16,0,0,1,1.16,38.748Zm0,0" transform="translate(0 -22.126)"/><path class="a" d="M160.466,422.958a5.8,5.8,0,0,1-5.8-5.8,1.16,1.16,0,0,1,2.319,0,3.479,3.479,0,0,0,6.958,0,1.16,1.16,0,0,1,2.319,0A5.8,5.8,0,0,1,160.466,422.958Zm0,0" transform="translate(-143.458 -385.849)"/><path class="a" d="M49.551,91.832H24.038a2.706,2.706,0,0,1-1.76-4.762,10.363,10.363,0,0,0,3.692-7.935V74.823a10.824,10.824,0,0,1,21.647,0v4.311a10.36,10.36,0,0,0,3.677,7.924,2.7,2.7,0,0,1-1.744,4.773ZM36.794,66.319a8.513,8.513,0,0,0-8.5,8.5v4.311a12.672,12.672,0,0,1-4.5,9.695.386.386,0,0,0-.139.3.391.391,0,0,0,.387.386H49.551a.391.391,0,0,0,.386-.386.381.381,0,0,0-.136-.294,12.676,12.676,0,0,1-4.5-9.7V74.823A8.513,8.513,0,0,0,36.794,66.319Zm0,0" transform="translate(-19.786 -59.361)"/><path class="a" d="M219.828,6.958a1.16,1.16,0,0,1-1.16-1.16V1.16a1.16,1.16,0,0,1,2.319,0V5.8A1.16,1.16,0,0,1,219.828,6.958Zm0,0" transform="translate(-202.819)"/></svg>