<svg xmlns="http://www.w3.org/2000/svg" width="27" height="27" viewBox="0 0 27 27"><defs><style>.a{fill:#6da544;}.b{fill:#ffda44;}.c{fill:#f0f0f0;}.d{fill:#0052b4;}</style></defs><g transform="translate(0 -0.344)"><circle class="a" cx="13.5" cy="13.5" r="13.5" transform="translate(0 0.344)"/><path class="b" d="M55.816,100.174,67.11,108.5l-11.294,8.322L44.522,108.5Z" transform="translate(-42.144 -94.824)"/><circle class="c" cx="4.755" cy="4.755" r="4.755" transform="translate(8.916 8.916)"/><g transform="translate(8.918 8.916)"><path class="d" d="M169.361,250.435a8,8,0,0,0-2.376.359,4.754,4.754,0,0,0,8.648,2.666A8.014,8.014,0,0,0,169.361,250.435Z" transform="translate(-166.985 -245.977)"/><path class="d" d="M183.212,172.624a4.756,4.756,0,0,0-9.037-2.788,9.8,9.8,0,0,1,9.037,2.788Z" transform="translate(-173.791 -166.957)"/></g></g></svg>