<svg xmlns="http://www.w3.org/2000/svg" width="31.594" height="31.594" viewBox="0 0 31.594 31.594"><defs><style>.a{fill:#09ae7b;}</style></defs><g transform="translate(0)"><g transform="translate(0)"><path class="a" d="M351.472,423.778a1.234,1.234,0,0,0-2.416.5,1.289,1.289,0,0,1-.261,1.081,1.254,1.254,0,0,1-.987.469h-5.573a1.234,1.234,0,0,0,0,2.468h5.573a3.749,3.749,0,0,0,3.665-4.522Z" transform="translate(-319.958 -396.706)"/><path class="a" d="M17.05,16.832A13.577,13.577,0,0,1,27.09,22.8a1.234,1.234,0,1,0,2.05-1.375,16.052,16.052,0,0,0-8.319-6.319,8.392,8.392,0,1,0-10.044,0A16.049,16.049,0,0,0,.08,27.072a3.749,3.749,0,0,0,3.665,4.522H9.133a1.234,1.234,0,1,0,0-2.468H3.745a1.254,1.254,0,0,1-.987-.469A1.289,1.289,0,0,1,2.5,27.575a13.639,13.639,0,0,1,11.921-10.73L12.062,27.564a1.234,1.234,0,0,0,.333,1.138l2.468,2.469a1.234,1.234,0,0,0,1.745,0L19.076,28.7a1.234,1.234,0,0,0,.333-1.137ZM9.873,8.392a5.924,5.924,0,1,1,6.218,5.917l-.294,0c-.1,0-.193,0-.289,0A5.931,5.931,0,0,1,9.873,8.392Zm5.862,20.16-1.118-1.118,1.118-5.086,1.118,5.086Z" transform="translate(0)"/></g></g></svg>