<svg xmlns="http://www.w3.org/2000/svg" width="30.2" height="28.22" viewBox="0 0 30.2 28.22"><defs><style>.a{fill:#0eb682;stroke:#0eb682;stroke-width:0.2px;}</style></defs><g transform="translate(-0.9 -1.88)"><path class="a" d="M26.44,30H5.56A4.57,4.57,0,0,1,1,25.45V11H31V25.45A4.57,4.57,0,0,1,26.44,30ZM3,13V25.45A2.57,2.57,0,0,0,5.56,28H26.44A2.57,2.57,0,0,0,29,25.45V13Z"/><path class="a" d="M31,13H1V8.58A4.57,4.57,0,0,1,5.56,4H26.44A4.57,4.57,0,0,1,31,8.58ZM3,11H29V8.58A2.57,2.57,0,0,0,26.44,6H5.56A2.57,2.57,0,0,0,3,8.58Z"/><rect class="a" width="2" height="6.06" rx="1" transform="translate(6.94 1.98)"/><rect class="a" width="2" height="6.06" rx="1" transform="translate(23.06 1.98)"/><rect class="a" width="2" height="6.06" rx="1" transform="translate(15 1.98)"/><ellipse class="a" cx="1.172" cy="1.172" rx="1.172" ry="1.172" transform="translate(14.798 16.08)"/><ellipse class="a" cx="1.172" cy="1.172" rx="1.172" ry="1.172" transform="translate(8.94 16.08)"/><ellipse class="a" cx="1.172" cy="1.172" rx="1.172" ry="1.172" transform="translate(20.657 16.08)"/><ellipse class="a" cx="1.172" cy="1.172" rx="1.172" ry="1.172" transform="translate(14.798 23.11)"/><ellipse class="a" cx="1.172" cy="1.172" rx="1.172" ry="1.172" transform="translate(8.94 23.11)"/><ellipse class="a" cx="1.172" cy="1.172" rx="1.172" ry="1.172" transform="translate(20.657 23.11)"/></g></svg>