<svg xmlns="http://www.w3.org/2000/svg" width="41.425" height="41.425" viewBox="0 0 41.425 41.425"><defs><style>.a{fill:#09ae7b;}</style></defs><path class="a" d="M262.518,252a10.518,10.518,0,1,0,3.921,20.281,1.618,1.618,0,1,0-1.207-3,7.272,7.272,0,1,1,4.214-4.509,1.618,1.618,0,1,0,3.078,1A10.525,10.525,0,0,0,262.518,252Z" transform="translate(-231.611 -231.611)"/><path class="a" d="M162,93.947a5.447,5.447,0,0,1-3.761-5.331,4.965,4.965,0,1,1,9.871,0,5.818,5.818,0,0,1-.128,1.217,1.618,1.618,0,0,0,3.168.66,9.094,9.094,0,0,0,.2-1.877c0-4.818-3.666-8.738-8.172-8.738S155,83.8,155,88.616a8.692,8.692,0,0,0,6.11,8.443A1.618,1.618,0,1,0,162,93.947Z" transform="translate(-142.459 -73.415)"/><path class="a" d="M343.64,334.9a1.618,1.618,0,0,0,1.618-1.618v-5.664a1.618,1.618,0,0,0-2.593-1.292l-2.023,1.527a1.618,1.618,0,0,0,1.379,2.859v2.57A1.618,1.618,0,0,0,343.64,334.9Z" transform="translate(-312.491 -299.624)"/><ellipse class="a" cx="2" cy="1.5" rx="2" ry="1.5" transform="translate(32 14)"/><path class="a" d="M34.952,0H6.473A6.48,6.48,0,0,0,0,6.473V23.949a6.48,6.48,0,0,0,6.473,6.473H15.7a1.618,1.618,0,1,0,0-3.236H6.473a3.24,3.24,0,0,1-3.236-3.236V6.473A3.24,3.24,0,0,1,6.473,3.236h28.48a3.24,3.24,0,0,1,3.236,3.236V18.69a1.618,1.618,0,1,0,3.236,0V6.473A6.48,6.48,0,0,0,34.952,0Z"/><circle class="a" cx="1.5" cy="1.5" r="1.5" transform="translate(6 14)"/></svg>