<svg xmlns="http://www.w3.org/2000/svg" width="39.458" height="39.458" viewBox="0 0 39.458 39.458"><defs><style>.a{fill:#47b48d;}</style></defs><g transform="translate(10.789 10.789)"><path class="a" d="M148.94,140a8.94,8.94,0,1,0,2.7,17.464,1.541,1.541,0,0,0-.93-2.939,5.849,5.849,0,1,1,3.853-3.937,1.541,1.541,0,0,0,2.959.865A8.946,8.946,0,0,0,148.94,140Z" transform="translate(-140 -140)"/></g><path class="a" d="M34.834,14.334h-.776a.513.513,0,0,1-.469-.323l-.014-.033a.517.517,0,0,1,.1-.567l.549-.549a4.629,4.629,0,0,0,0-6.539l-1.09-1.09a4.624,4.624,0,0,0-6.539,0l-.549.549a.516.516,0,0,1-.566.1l-.029-.012a.515.515,0,0,1-.328-.471V4.624A4.629,4.629,0,0,0,20.5,0H18.958a4.629,4.629,0,0,0-4.624,4.624V5.4a.514.514,0,0,1-.326.471l-.03.012a.516.516,0,0,1-.567-.1l-.549-.549a4.624,4.624,0,0,0-6.539,0l-1.09,1.09a4.629,4.629,0,0,0,0,6.539l.549.549a.519.519,0,0,1,.1.573l-.009.023a.515.515,0,0,1-.471.328H4.624A4.629,4.629,0,0,0,0,18.958V20.5a4.629,4.629,0,0,0,4.624,4.624H5.4a.513.513,0,0,1,.469.323l.014.033a.517.517,0,0,1-.1.567l-.549.549a4.624,4.624,0,0,0,0,6.539l1.09,1.09a4.624,4.624,0,0,0,6.539,0l.549-.549a.516.516,0,0,1,.566-.1l.029.012a.515.515,0,0,1,.328.471v.776a4.629,4.629,0,0,0,4.624,4.624H20.5a4.629,4.629,0,0,0,4.624-4.624v-.776a.514.514,0,0,1,.326-.471l.03-.012a.517.517,0,0,1,.567.1l.549.549a4.624,4.624,0,0,0,6.539,0l1.09-1.09a4.624,4.624,0,0,0,0-6.539l-.549-.549a.516.516,0,0,1-.1-.567l.012-.028a.515.515,0,0,1,.471-.328h.776A4.629,4.629,0,0,0,39.458,20.5V18.958A4.629,4.629,0,0,0,34.834,14.334ZM36.375,20.5a1.543,1.543,0,0,1-1.541,1.541h-.776a3.588,3.588,0,0,0-3.321,2.234l-.01.024a3.59,3.59,0,0,0,.769,3.927l.549.549a1.541,1.541,0,0,1,0,2.18l-1.09,1.09a1.541,1.541,0,0,1-2.18,0l-.549-.549a3.59,3.59,0,0,0-3.93-.768l-.022.009a3.587,3.587,0,0,0-2.234,3.321v.776A1.543,1.543,0,0,1,20.5,36.375H18.958a1.543,1.543,0,0,1-1.541-1.541v-.776a3.588,3.588,0,0,0-2.235-3.321l-.021-.009a3.639,3.639,0,0,0-1.4-.28A3.573,3.573,0,0,0,11.232,31.5l-.549.549a1.541,1.541,0,0,1-2.18,0l-1.09-1.09a1.541,1.541,0,0,1,0-2.18l.549-.549A3.589,3.589,0,0,0,8.731,24.3l-.01-.024A3.588,3.588,0,0,0,5.4,22.041H4.624A1.543,1.543,0,0,1,3.083,20.5V18.958a1.543,1.543,0,0,1,1.541-1.541H5.4a3.59,3.59,0,0,0,3.323-2.239l.007-.017a3.589,3.589,0,0,0-.768-3.929l-.549-.549a1.543,1.543,0,0,1,0-2.18L8.5,7.413a1.541,1.541,0,0,1,2.18,0l.549.549a3.59,3.59,0,0,0,3.93.768l.022-.009A3.587,3.587,0,0,0,17.417,5.4V4.624a1.543,1.543,0,0,1,1.541-1.541H20.5a1.543,1.543,0,0,1,1.541,1.541V5.4a3.588,3.588,0,0,0,2.235,3.321l.021.009a3.59,3.59,0,0,0,3.929-.768l.549-.549a1.541,1.541,0,0,1,2.18,0l1.09,1.09a1.543,1.543,0,0,1,0,2.18l-.549.549a3.587,3.587,0,0,0-.77,3.923l.012.028a3.588,3.588,0,0,0,3.321,2.234h.776a1.543,1.543,0,0,1,1.541,1.541Z"/></svg>